<svg xmlns="http://www.w3.org/2000/svg" xmlns:xlink="http://www.w3.org/1999/xlink" viewBox="0 0 56.91 57.28"><defs><style>.cls-1{fill:url(#linear-gradient);}.cls-2{fill:url(#linear-gradient-2);}.cls-3{isolation:isolate;}.cls-4{fill:#e00886;}.cls-5{fill:#ec2427;}.cls-6{fill:#2c2e73;}</style><linearGradient id="linear-gradient" y1="28.64" x2="34.13" y2="28.64" gradientUnits="userSpaceOnUse"><stop offset="0" stop-color="#54a0d3"/><stop offset="0.05" stop-color="#6daed9"/><stop offset="0.15" stop-color="#94c3e3"/><stop offset="0.25" stop-color="#b5d6ec"/><stop offset="0.36" stop-color="#d0e5f3"/><stop offset="0.47" stop-color="#e5f1f8"/><stop offset="0.6" stop-color="#f4f9fc"/><stop offset="0.76" stop-color="#fcfefe"/><stop offset="1" stop-color="#fff"/></linearGradient><linearGradient id="linear-gradient-2" x1="22.12" y1="28.98" x2="56.91" y2="28.98" gradientUnits="userSpaceOnUse"><stop offset="0" stop-color="#fff"/><stop offset="0.12" stop-color="#f9fbfd"/><stop offset="0.28" stop-color="#e7f2f9"/><stop offset="0.47" stop-color="#cae1f1"/><stop offset="0.68" stop-color="#a1cbe7"/><stop offset="0.9" stop-color="#6eaeda"/><stop offset="1" stop-color="#54a0d3"/></linearGradient></defs><g id="Layer_2" data-name="Layer 2"><g id="Layer_3" data-name="Layer 3"><path class="cls-1" d="M16.4.11a3.15,3.15,0,0,0-1.81.63L1.32,10.64A3.3,3.3,0,0,0,0,13.28V50.81a3.3,3.3,0,0,0,2.24,3.13l9.92,3.28c.34.11,10.29,0,14.89.06,4.23.09,7.16-3.35,7.08-7.63V2.6C34.09.77,31.72,0,29.92,0S16.79.1,16.4.11Z"/><ellipse class="cls-2" cx="39.51" cy="28.98" rx="17.39" ry="24.98"/><g class="cls-3"><path class="cls-4" d="M20.42,3.48l.54.17c.18.06.37.12.54.19a1.24,1.24,0,0,1,.29.23l.49.55a3.29,3.29,0,0,1,.39.5,6,6,0,0,1,.25.61,3.26,3.26,0,0,1,.33.66,1.94,1.94,0,0,1,.2.7c0,.26-.2.57-.62.94a1.75,1.75,0,0,1-1,.55.4.4,0,0,1-.34-.13.57.57,0,0,1-.11-.39c-.07-.29-.12-.54-.16-.75a4.44,4.44,0,0,0-.86-1.76A1.69,1.69,0,0,0,19.07,5a2.53,2.53,0,0,0-.77.12,2.3,2.3,0,0,0-.69.37,2.87,2.87,0,0,0-.42.4l-.64.7a.86.86,0,0,1-.13.17c-.05.07-.12.15-.19.26L16,7.42c-.12.16-.25.36-.41.57s-.14.36-.21.52a2.43,2.43,0,0,1-.26.44.52.52,0,0,0-.06.17c0,.08,0,.19-.09.32s-.11.35-.17.54l-.22.64c-.12.78-.21,1.4-.26,1.86a7.82,7.82,0,0,0-.08.88,4.87,4.87,0,0,0,.08.93,5.09,5.09,0,0,0,.27.92c.1.23.18.42.27.58a1.24,1.24,0,0,0,.24.34,1.18,1.18,0,0,0,.44.25,2.16,2.16,0,0,0,.59.08,2.58,2.58,0,0,0,.88-.15,3,3,0,0,0,.77-.42,5.21,5.21,0,0,0,.41-.39l.85-.83c.07-.06.17-.14.28-.25l.36-.35a5.34,5.34,0,0,0,.41-.56l.39-.53a1.45,1.45,0,0,1,.54-.43,1.37,1.37,0,0,1,.64-.14,1.06,1.06,0,0,1,.7.19.69.69,0,0,1,.23.58,1,1,0,0,1-.08.36,2.64,2.64,0,0,0-.1.36c0,.13,0,.29-.07.48s-.07.41-.11.67a4.19,4.19,0,0,1-.11.86,2.32,2.32,0,0,1-.23.66,4.27,4.27,0,0,0-.32,1.17,4.29,4.29,0,0,1-.33,1.19,1,1,0,0,0-.13.34c0,.15-.08.35-.12.58s-.07.28-.11.39a.75.75,0,0,1-.18.26l-.26.14a4.31,4.31,0,0,1-.45.16.67.67,0,0,1-.16.37.39.39,0,0,1-.31.13.3.3,0,0,1-.25-.13.77.77,0,0,1-.09-.42c0-.07,0-.19,0-.34s.08-.35.15-.59.05-.27.08-.46a6.68,6.68,0,0,0,0-.71c0-.14.06-.37.12-.68s.16-.69.29-1.14l-.15-.7c0-.09.05-.18.08-.29a.14.14,0,0,0-.16-.15,5.33,5.33,0,0,0-.67.49c-.39.32-.73.58-1,.78s-.48.35-.63.44a5.73,5.73,0,0,1-.93.46,4.2,4.2,0,0,1-1,.25l-.51-.1-.39.07A1.39,1.39,0,0,1,14,18a4,4,0,0,1-.63-.34,3.25,3.25,0,0,1-.53-.52,2.8,2.8,0,0,1-.43-.72,2.61,2.61,0,0,1-.18-.52l-.27-1a1.69,1.69,0,0,0,.12-.56,2.88,2.88,0,0,0,0-.65l.23-1.61a11.24,11.24,0,0,1,1.09-3.6A9.6,9.6,0,0,1,15.5,5.71c.29-.27.54-.49.74-.66a3.17,3.17,0,0,0,.38-.34c.17-.12.36-.25.56-.37s.42-.24.66-.36l.42-.2.56-.21,1.08-.12.36.09Z"/><path class="cls-4" d="M24,11.19a.93.93,0,0,1,.08-.33,3.84,3.84,0,0,1,.26-.45c.17-.21.29-.38.37-.5a1,1,0,0,0,.13-.24L25,9.36l.22-.44a1.6,1.6,0,0,0,.27-.51c.1-.27.21-.61.34-1A4.18,4.18,0,0,0,26,7l.25-.57a2.88,2.88,0,0,1,.18-.58c.08-.23.19-.47.32-.75s.33-.51.51-.76A1.57,1.57,0,0,1,28,3.73a1.31,1.31,0,0,1,.3.24.32.32,0,0,1,.1.22,1.5,1.5,0,0,1-.26.72,1.67,1.67,0,0,0-.26.61.22.22,0,0,0,.11.16,2.24,2.24,0,0,0,.33-.26L29,4.84a6.06,6.06,0,0,1,.58-.46,1.31,1.31,0,0,1,.49-.22,2.28,2.28,0,0,1,.38-.1A3.13,3.13,0,0,0,31,3.92a1.25,1.25,0,0,0,.24-.15,1.54,1.54,0,0,1,.26-.13l.17,0a1.48,1.48,0,0,0,.58.19,3.92,3.92,0,0,0,.6.11,1,1,0,0,1,.24.17,3.44,3.44,0,0,0,.36.26,2.87,2.87,0,0,1,.86.76A5.33,5.33,0,0,1,35,6.41a8.77,8.77,0,0,1,.46,1.29,5,5,0,0,1,.15,1.19A9.21,9.21,0,0,1,35.11,12a5.2,5.2,0,0,1-1.47,2.17l-.22.21-.33.3v.12A.59.59,0,0,1,33,15a2.92,2.92,0,0,1-.3.28l-.87.74c-.29.25-.59.49-.9.73a7.4,7.4,0,0,1-1.09.73,4.68,4.68,0,0,1-1,.38,1.53,1.53,0,0,1-.51.26,2.7,2.7,0,0,1-.75.09,5.9,5.9,0,0,1-1.05-.08,1.18,1.18,0,0,1-.57-.23,1.82,1.82,0,0,0-.25-.2,3.78,3.78,0,0,1-.32-.24A1.46,1.46,0,0,1,25,17a5.3,5.3,0,0,1-.31-1c-.06-.29-.11-.58-.15-.85a7.42,7.42,0,0,1-.05-.77,1.74,1.74,0,0,1,.06-.36,1.58,1.58,0,0,0,0-.38,2.81,2.81,0,0,0,0-.43,2.66,2.66,0,0,1,.13-.61,2.27,2.27,0,0,0,.13-.67.47.47,0,0,0-.07-.16,1.87,1.87,0,0,0-.27.36.49.49,0,0,1-.16.16.41.41,0,0,1-.17,0,.24.24,0,0,1-.2-.09.51.51,0,0,1-.08-.3,1.88,1.88,0,0,1,.06-.38A1.58,1.58,0,0,0,24,11.19Zm6.86-5.27a2.86,2.86,0,0,0-.57.07,3.59,3.59,0,0,0-.59.18l-1.11.47a.88.88,0,0,0-.26.17,1.92,1.92,0,0,0-.32.32l-.53.61a2.57,2.57,0,0,0-.45,1,15.27,15.27,0,0,0-.35,1.93c-.08.61-.13,1.18-.16,1.71s0,1,0,1.46a3.72,3.72,0,0,0,.45,2,1.53,1.53,0,0,0,1.36.67,2.61,2.61,0,0,0,1-.21,5.71,5.71,0,0,0,1.16-.64A8.17,8.17,0,0,0,31.3,15a4.58,4.58,0,0,0,.67-.75,6.35,6.35,0,0,0,.37-.64L33,12.28A7.49,7.49,0,0,0,33.47,11a5.07,5.07,0,0,0,.16-1.29c0-.22-.09-.43-.15-.64l.09-.46-.2-.24a1,1,0,0,0-.06-.14,4,4,0,0,0-1-1.75A2.11,2.11,0,0,0,30.83,5.92Z"/></g><g class="cls-3"><path class="cls-5" d="M14.4,40.81a1.44,1.44,0,0,0-.24-.41l-.49-.64c-.2-.23-.35-.42-.45-.55a.57.57,0,0,1-.14-.28c0-.2.28-.53.85-1a2.56,2.56,0,0,1,1.25-.69,1.62,1.62,0,0,1,.43.19H16c.24.1.48.2.73.28l.74.27a5.13,5.13,0,0,1,1.34.64,4.21,4.21,0,0,0,.85.54,2.69,2.69,0,0,0,.32.29c.15.13.37.3.65.5l.13.12.17.18c.38.37.7.7,1,1a4.58,4.58,0,0,1,.59.86,4.11,4.11,0,0,1,.38,1,5.66,5.66,0,0,1,.13,1.2,4.67,4.67,0,0,1-.4,2,2.62,2.62,0,0,1-1.24,1.22l-.22.12-.29.15-.17.14a3,3,0,0,1-.75.44c-.35.15-.81.32-1.38.5l-2.37.77c-.23.1-.43.17-.59.23a1.18,1.18,0,0,1-.38.09,1.32,1.32,0,0,0-.46,0c-.06,0-.1.32-.15.86,0,.35,0,.7-.08,1a.9.9,0,0,0,.14.42,2.38,2.38,0,0,0,.43.53,4.94,4.94,0,0,1-.27.42,4.54,4.54,0,0,1-.38.44,1.79,1.79,0,0,1-.49.44.93.93,0,0,1-.48.14.68.68,0,0,1-.64-.37,2.4,2.4,0,0,1-.2-1.13,2.56,2.56,0,0,1,.09-.6,8.51,8.51,0,0,1,.28-.89l-.07-.63-.34-.14-.32-.16a1,1,0,0,1-.34-.19.32.32,0,0,1-.1-.22c0-.08.21-.21.64-.38s.65-.39.65-.67a1.49,1.49,0,0,0-.06-.35A1.45,1.45,0,0,1,13,48.3c.08-.42.16-.84.26-1.26a2.12,2.12,0,0,0,.07-.39c0-.21.06-.52.1-.92,0-.13.07-.28.12-.47s.11-.4.18-.64l-.1-.39Zm1.09-1.47a.16.16,0,0,0-.11,0,.15.15,0,0,0,0,.1c1.05.88,1.57,1.53,1.57,2a11.6,11.6,0,0,1-.51,1.67,12.57,12.57,0,0,1-.7,1.79l.11.45c-.24.73-.42,1.35-.54,1.87a5.82,5.82,0,0,0-.18,1.24.21.21,0,0,0,.06.17.24.24,0,0,0,.17.06,1.86,1.86,0,0,0,.47-.1,6.1,6.1,0,0,0,.89-.33c.23-.1.46-.2.69-.28l.71-.27.33-.17.42-.24.51-.32.23-.15a2.44,2.44,0,0,0,.87-.81,2.23,2.23,0,0,0,.29-1.15,3.22,3.22,0,0,0-.11-.81,4.77,4.77,0,0,0-.34-.84l0-.26-.09-.12L20,42.67l-.17-.17a1,1,0,0,1-.17-.28,4.46,4.46,0,0,0-.77-.83,16,16,0,0,0-1.49-1.14l-.24-.17a2.43,2.43,0,0,0-.29-.22l-.59-.22Z"/><path class="cls-5" d="M25.12,50.57a7.36,7.36,0,0,1,.06-1,4.42,4.42,0,0,1,.14-.65c0-.12,0-.24-.06-.37s0-.4.06-.76.11-.81.2-1.37.15-1,.21-1.27.1-.48.12-.54a3.24,3.24,0,0,0-.06-.4,3.46,3.46,0,0,0-.11-.47l-.29-.18-.07-.13c0-.2,0-.4.05-.6a3.2,3.2,0,0,1,.09-.62,2.59,2.59,0,0,1,.12-.68,5.31,5.31,0,0,1,.21-.51.94.94,0,0,0,.08-.15,1.67,1.67,0,0,1,.13-.2l.24-.78c.08-.26.16-.51.25-.75a1.47,1.47,0,0,1,.57-.59,2.22,2.22,0,0,1,.9-.29c.25-.11.46-.19.64-.25a1.75,1.75,0,0,1,.42-.08.36.36,0,0,1,.29.12.45.45,0,0,1,.11.34,4.06,4.06,0,0,1-.11.59c-.07.34-.18.82-.33,1.42a6.46,6.46,0,0,1-.13.71c-.06.28-.15.61-.25,1s-.26.89-.39,1.39-.25,1.07-.35,1.68l-.15.76-.15.77c0,.29-.1.57-.13.83a4.72,4.72,0,0,0-.06.7.86.86,0,0,0,0,.23,1.49,1.49,0,0,1,0,.21,1.12,1.12,0,0,1,0,.31c0,.13,0,.28-.07.46s-.07.33-.1.47a2.74,2.74,0,0,0,0,.32,7,7,0,0,0,0,.88,1.88,1.88,0,0,0,.07.45q.09.28.18.63c0,.12-.19.3-.59.54a2.08,2.08,0,0,1-.86.36.48.48,0,0,1-.29-.09,1.2,1.2,0,0,1-.26-.28,2,2,0,0,1-.14-.31.65.65,0,0,1-.06-.26.58.58,0,0,1,.06-.2.76.76,0,0,0,.05-.21,2.39,2.39,0,0,0-.24-.53c0,.07,0,.05,0,0Z"/></g><g class="cls-3"><path class="cls-6" d="M7.85,20a.85.85,0,0,1,.32-.3,2.56,2.56,0,0,1,.47-.21c.1-.1.21-.23.36-.37A.85.85,0,0,1,9.17,19l.25-.14a3.64,3.64,0,0,0,.38-.16c.17,0,.3.12.39.36a3.35,3.35,0,0,1,.16,1.11,13.34,13.34,0,0,1-.11,2.07,7.39,7.39,0,0,1-.4,1.65c0,.06-.05.12-.07.19s0,.15-.09.24,0,.27-.08.44-.08.37-.13.6a2.13,2.13,0,0,0,0,.27,2,2,0,0,1,0,.38,2.88,2.88,0,0,1-.12.47c-.07.23-.17.52-.31.86l0,.24-.22.73c-.09.3-.2.63-.33,1a6.1,6.1,0,0,1-.19.67c-.08.26-.18.56-.29.9q0,.27-.06.48c0,.05-.06.21-.13.46s-.2.59-.37,1a.85.85,0,0,1-.27.34,2.29,2.29,0,0,1-.55.31,5.17,5.17,0,0,1-.55.19,2.4,2.4,0,0,1-.51.07,1.12,1.12,0,0,1-.62-.14.86.86,0,0,1-.39-.43q-.45-1-.66-1.62a3.29,3.29,0,0,1-.21-.8,2.58,2.58,0,0,1-.16-.33,6.29,6.29,0,0,1-.23-.67c-.08-.25-.13-.47-.17-.64s-.05-.32-.06-.42a3.5,3.5,0,0,1,.09-1c.07-.23.18-.35.32-.35a1.7,1.7,0,0,1,.66.09,1.29,1.29,0,0,1,.48.29,1.39,1.39,0,0,1,.24.38c.09.18.19.4.31.68s.26.57.33.76A1.29,1.29,0,0,1,5.6,30c0,.13-.08.25-.25.35s-.27.21-.27.29a2.53,2.53,0,0,1,.18.37c0,.13.1.24.15.35a1.32,1.32,0,0,0,.26.41.35.35,0,0,0,.26.13c.11,0,.24-.16.38-.48a8.83,8.83,0,0,0,.46-1.46c.13-.47.24-.91.34-1.3a10.71,10.71,0,0,0,.21-1.08,4.68,4.68,0,0,0,.15-.48c.06-.19.12-.42.19-.68a.66.66,0,0,0,0-.21,1.68,1.68,0,0,1,0-.29c0-.36.11-.72.17-1.08l.18-1.1c.06-.42.11-.82.13-1.18s0-.7,0-1-.19-.4-.54-.44-.54-.12-.54-.24a.56.56,0,0,1,.18-.34A2.86,2.86,0,0,1,7.85,20Z"/><path class="cls-6" d="M10.22,30.58l.07-.08,0-.1a7,7,0,0,1,1-1,6.86,6.86,0,0,0,1-1,.6.6,0,0,1,.25-.25.57.57,0,0,1,.28-.08,1,1,0,0,1,.64.17.9.9,0,0,1,.36.55c.06.22.11.44.16.66s.09.45.12.68.12.35.2.63a1.78,1.78,0,0,0,.17.49.31.31,0,0,0,.17.15.68.68,0,0,0,.27.05,1.49,1.49,0,0,0,.4-.08,1.33,1.33,0,0,0,.42-.25l.34-.29.35-.28.45,1a3.9,3.9,0,0,1-.45.4l-.68.52a6.17,6.17,0,0,1-.76.49,1.23,1.23,0,0,1-.47.16,2.38,2.38,0,0,1-1.29-.2,3,3,0,0,1-.68-1.23,2.12,2.12,0,0,0-.13-.2,2.37,2.37,0,0,1-.2-.27,2.21,2.21,0,0,0-.24-.36c-.07-.08-.12-.12-.16-.12a.86.86,0,0,0-.47.24,5.69,5.69,0,0,0-.7.7c0-.09-.09-.2-.14-.33s-.12-.27-.18-.44l-.06-.12Zm4.38-8.46a.58.58,0,0,1,.4.1.37.37,0,0,1,.13.3c0,.2-.07.37-.1.5s-.13.47-.18.63a3.24,3.24,0,0,1-.12.35,1.27,1.27,0,0,1-.25.42,2.16,2.16,0,0,1-.4.32,2.66,2.66,0,0,1-.42.25.85.85,0,0,1-.23.06l-.36,0h-.33a.55.55,0,0,1-.23-.28,2,2,0,0,1-.09-.57,1.38,1.38,0,0,1,.38-.81c.26-.33.49-.51.69-.53s.26-.33.43-.52a1,1,0,0,1,.28-.13A1.56,1.56,0,0,1,14.6,22.12Z"/><path class="cls-6" d="M16.44,30.46a1.15,1.15,0,0,0,.15-.2l.19-.28c.32-.39.62-.75.91-1.06s.58-.59.84-.84.3-.3.49-.5l.67-.71c.26-.11.55-.22.86-.36a.54.54,0,0,1,.44.18,1,1,0,0,1,.15.53,5,5,0,0,1,0,.65,4.46,4.46,0,0,1-.12.7c-.06.2-.11.38-.15.56a.16.16,0,0,0,0,.11.13.13,0,0,0,.11,0,2.92,2.92,0,0,0,.62-.54c.31-.31.71-.74,1.21-1.3a7.43,7.43,0,0,1,1.12-1.06,1.46,1.46,0,0,1,.77-.36.5.5,0,0,1,.47.22,1.2,1.2,0,0,1,.16.67,7.31,7.31,0,0,1-.07,1.25,5,5,0,0,1-.31,1.15.59.59,0,0,0-.05.19.62.62,0,0,0,0,.13c0,.05,0,.1.13.14a1.54,1.54,0,0,0,.2-.22l.26-.35.49-.42.53-.42A2.84,2.84,0,0,1,27.1,28a1.77,1.77,0,0,1,.62-.13.23.23,0,0,1,.11,0l.11.07c.17.14.31.27.42.38a1.42,1.42,0,0,1,.24.3,6.93,6.93,0,0,0,.78,1.25c.22.28.42.41.59.41l.11,0,.1-.07c.18.34.32.67.45,1a4.56,4.56,0,0,1-.69.46,1.29,1.29,0,0,1-.53.17,2.18,2.18,0,0,1-1.57-.92c-.54-.63-1-.93-1.24-.93s-1,.56-1.85,1.67-1.39,1.65-1.6,1.66l-.44,0a.21.21,0,0,1-.13-.13.52.52,0,0,1,0-.23,1.45,1.45,0,0,1,.06-.42c0-.18.09-.38.16-.62s.16-.54.21-.71a3.56,3.56,0,0,0,.09-.38c0-.09.05-.27.08-.54s.08-.63.14-1.07A.25.25,0,0,0,23.2,29a.21.21,0,0,0-.15-.07.39.39,0,0,0-.17.06,1.05,1.05,0,0,0-.21.15l-.28.29-.5.4-.76.88-.79.9c-.43.5-.77.88-1,1.12s-.42.36-.49.36a1.17,1.17,0,0,1-.5-.06.24.24,0,0,1-.17-.22,6.46,6.46,0,0,1,.36-1.47,5.55,5.55,0,0,0,.35-1.57.17.17,0,0,0-.17-.17.67.67,0,0,0-.31.15,2.47,2.47,0,0,0-.4.46c-.1.12-.22.25-.37.4s-.31.33-.52.53a.89.89,0,0,1-.08.17l-.12.15a2.1,2.1,0,0,0-.16-.38C16.66,30.88,16.57,30.69,16.44,30.46Z"/><path class="cls-6" d="M30.17,30.19l.15-.2.19-.27c.31-.4.61-.75.91-1.07s.57-.59.84-.84.3-.29.49-.5l.67-.71c.26-.1.55-.22.85-.36a.52.52,0,0,1,.44.18.89.89,0,0,1,.16.54,5,5,0,0,1,0,.64c0,.23-.07.47-.12.71s-.11.37-.15.55a.16.16,0,0,0,0,.11.12.12,0,0,0,.11,0,3.09,3.09,0,0,0,.62-.55q.47-.47,1.2-1.29a7.57,7.57,0,0,1,1.13-1.07,1.46,1.46,0,0,1,.77-.36.52.52,0,0,1,.47.22,1.29,1.29,0,0,1,.16.67A8.49,8.49,0,0,1,39,27.88,5.11,5.11,0,0,1,38.66,29c0,.07,0,.13,0,.18s0,.09,0,.14,0,.09.14.13a2.2,2.2,0,0,0,.19-.21c.08-.1.16-.22.26-.36l.49-.41.54-.43a2.62,2.62,0,0,1,.61-.37,1.77,1.77,0,0,1,.62-.13l.11,0,.11.07c.17.14.31.27.42.38a1.5,1.5,0,0,1,.23.3,8.28,8.28,0,0,0,.78,1.25c.23.28.43.41.59.41a.2.2,0,0,0,.11,0l.11-.07c.17.34.32.67.44,1a4.08,4.08,0,0,1-.68.46,1.29,1.29,0,0,1-.53.17,2.18,2.18,0,0,1-1.57-.92c-.55-.62-1-.93-1.24-.93s-1,.57-1.85,1.67S37.09,33,36.87,33l-.43,0a.25.25,0,0,1-.14-.13.61.61,0,0,1,0-.24,1.39,1.39,0,0,1,.05-.42c0-.18.1-.38.16-.62s.16-.53.22-.71a3.07,3.07,0,0,0,.09-.38c0-.09,0-.27.08-.54s.08-.63.13-1.07a.21.21,0,0,0-.22-.24.45.45,0,0,0-.17.05.66.66,0,0,0-.2.16l-.29.28c-.1.09-.27.23-.5.4s-.5.58-.76.88-.52.6-.79.9a13.56,13.56,0,0,1-1,1.12,1.61,1.61,0,0,1-.49.37,1.29,1.29,0,0,1-.5-.07.24.24,0,0,1-.17-.22A5.61,5.61,0,0,1,32.24,31a5.37,5.37,0,0,0,.36-1.58.17.17,0,0,0-.05-.12.2.2,0,0,0-.13,0,.52.52,0,0,0-.31.15,2.76,2.76,0,0,0-.4.45l-.36.4c-.14.16-.32.33-.52.53a.56.56,0,0,1-.09.17l-.11.16a2.69,2.69,0,0,0-.16-.39Z"/><path class="cls-6" d="M43.9,29.92a5.75,5.75,0,0,1,.75-.63,8.56,8.56,0,0,0,.76-.61c.1-.13.24-.28.41-.47l.61-.65a3.2,3.2,0,0,1,.42-.31.93.93,0,0,1,.41-.11.53.53,0,0,1,.41.12.48.48,0,0,1,.16.4,4.37,4.37,0,0,1-.3,1.34,5.07,5.07,0,0,0-.3,1.41.21.21,0,0,0,.05.15.28.28,0,0,0,.12,0l.05,0a4.2,4.2,0,0,0,.48-.33c.18-.13.39-.3.62-.49l.69-.69,1-1,.49-.44L51.3,27a1,1,0,0,1,.39-.31,1.85,1.85,0,0,1,.62-.12.64.64,0,0,1,.38.09.29.29,0,0,1,.13.26.76.76,0,0,1,0,.15l0,.13a6.83,6.83,0,0,1-.21.79c-.1.3-.21.67-.35,1.09a8.78,8.78,0,0,0-.36.95c-.13.36-.27.77-.41,1.21l.08.09a3.32,3.32,0,0,0,.67-.51c.29-.27.66-.64,1.11-1.09l.45,1-.21.21a2.37,2.37,0,0,1-.32.26,16.44,16.44,0,0,0-2,1.64A8,8,0,0,0,50,34.41q-.7,1.19-1.17,1.92c-.32.5-.54.85-.68,1.05a7.06,7.06,0,0,1-1.4,1.46,2.32,2.32,0,0,1-1.31.49.56.56,0,0,1-.35-.09A.37.37,0,0,1,45,39a.74.74,0,0,1,0-.27,1.07,1.07,0,0,1,.19-.34c.13-.2.25-.4.36-.61l.32-.28a.63.63,0,0,0,0-.19l.12-.13.19-.17a3.33,3.33,0,0,1,.4-.64c.21-.3.51-.68.9-1.15s.56-.65.8-.92l.62-.69c0-.06,0-.13.08-.2a1.13,1.13,0,0,0,.08-.24c.09-.18.19-.41.3-.67s.23-.58.39-.93.12-.45.17-.71.08-.56.12-.87l0-.11a.71.71,0,0,0-.05-.2,2.85,2.85,0,0,0-.43.3l-.49.45a4.56,4.56,0,0,1-.72.78,3.48,3.48,0,0,1-.71.47,1.66,1.66,0,0,1-.61.69,1.6,1.6,0,0,1-.86.23.73.73,0,0,1-.54-.15.66.66,0,0,1-.2-.5,1.15,1.15,0,0,1,0-.16,1.11,1.11,0,0,1,0-.23l-.12-.29a3.86,3.86,0,0,0,.07-.41,1.37,1.37,0,0,0-.06-.47c0-.11-.09-.16-.16-.16l0,0-.33.26-.52.43a3.54,3.54,0,0,0-.14-.33c-.06-.12-.11-.27-.18-.44A.37.37,0,0,0,44,30,.36.36,0,0,0,43.9,29.92Z"/></g></g></g></svg>