<?xml version="1.0" encoding="utf-8"?>
<!-- Generator: Adobe Illustrator 18.1.1, SVG Export Plug-In . SVG Version: 6.00 Build 0)  -->
<!DOCTYPE svg PUBLIC "-//W3C//DTD SVG 1.1//EN" "http://www.w3.org/Graphics/SVG/1.1/DTD/svg11.dtd">
<svg version="1.1" id="Layer_1" xmlns="http://www.w3.org/2000/svg" xmlns:xlink="http://www.w3.org/1999/xlink" x="0px" y="0px"
	 viewBox="74 0 52 50" enable-background="new 74 0 52 50" xml:space="preserve">
<path fill="#55ACEE" d="M125,9.2c-1.8,0.8-3.8,1.4-5.8,1.6c2.1-1.3,3.7-3.2,4.5-5.6c-2,1.2-4.1,2-6.4,2.5c-1.8-2-4.5-3.2-7.4-3.2
	c-5.6,0-10.2,4.5-10.2,10.2c0,0.8,0.1,1.6,0.3,2.3c-8.5-0.4-16-4.5-21-10.6c-0.9,1.5-1.4,3.2-1.4,5.1c0,3.5,1.8,6.6,4.5,8.5
	c-1.7-0.1-3.2-0.5-4.6-1.3c0,0,0,0.1,0,0.1c0,4.9,3.5,9,8.2,10C84.8,28.9,83.9,29,83,29c-0.7,0-1.3-0.1-1.9-0.2c1.3,4,5.1,7,9.5,7.1
	c-3.5,2.7-7.9,4.3-12.6,4.3c-0.8,0-1.6-0.1-2.4-0.1c4.5,2.9,9.8,4.6,15.6,4.6c18.7,0,28.9-15.5,28.9-28.9c0-0.4,0-0.9,0-1.3
	C122,13,123.7,11.2,125,9.2z"/>
</svg>
