<?xml version="1.0" encoding="utf-8"?>
<!-- Generator: Adobe Illustrator 15.0.0, SVG Export Plug-In . SVG Version: 6.00 Build 0)  -->
<!DOCTYPE svg PUBLIC "-//W3C//DTD SVG 1.1//EN" "http://www.w3.org/Graphics/SVG/1.1/DTD/svg11.dtd">
<svg version="1.1"
	 id="svg2" xmlns:inkscape="http://www.inkscape.org/namespaces/inkscape" xmlns:sodipodi="http://sodipodi.sourceforge.net/DTD/sodipodi-0.dtd" xmlns:svg="http://www.w3.org/2000/svg" xmlns:rdf="http://www.w3.org/1999/02/22-rdf-syntax-ns#" xmlns:cc="http://creativecommons.org/ns#" xmlns:dc="http://purl.org/dc/elements/1.1/"
	 xmlns="http://www.w3.org/2000/svg" xmlns:xlink="http://www.w3.org/1999/xlink" x="0px" y="0px" width="256px" height="256px"
	 viewBox="0 0 256 256" enable-background="new 0 0 256 256" xml:space="preserve">
<path id="rect1942" fill="#E6E6E6" d="M210.018,10.505H45.983c-19.599,0-35.487,15.888-35.487,35.487v164.015
	c0,19.599,15.888,35.486,35.487,35.486h164.033c19.604,0,35.487-15.888,37.487-34.819V46.66
	C245.504,26.394,229.615,10.505,210.018,10.505z"/>
<g enable-background="new    ">
	<path d="M59.637,35.419h15.304l1.97,7.879l1.667,5.818l1.364,5.697l1.364,5.939l1.061,4.97h0.606l1.061-4.97l1.212-5.939
		l1.515-5.697l1.515-5.818l2.121-7.879h14.849L89.488,82.693v33.577H75.397V82.693L59.637,35.419z"/>
	<path d="M124.184,55.298c11.97,0,18.031,5.697,18.031,16.97v27.88c0,11.273-6.061,16.97-18.031,16.97s-18.031-5.697-18.031-16.97
		v-27.88C106.153,60.996,112.213,55.298,124.184,55.298z M124.184,64.996c-3.182,0-4.849,1.939-4.849,5.576v31.271
		c0,3.515,1.818,5.576,4.849,5.576c3.031,0,4.849-2.061,4.849-5.576V70.572C129.032,66.935,127.214,64.996,124.184,64.996z"/>
	<path d="M179.791,116.27l-1.061-5.212c-5.455,4.485-8.642,6.061-12.426,6.061c-3.186,0-6.519-1.455-8.029-3.394
		c-1.668-2.061-2.121-4.243-2.121-10.425V56.026h13.182v46.911c0,3.03,1.061,4.485,3.484,4.485c1.668,0,3.183-0.606,5.91-2.424
		V56.026h13.183v60.244H179.791z"/>
</g>
<linearGradient id="rect3708_1_" gradientUnits="userSpaceOnUse" x1="466.9219" y1="1717.5049" x2="466.9219" y2="1615.584" gradientTransform="matrix(1 0 0 1 -339.6426 -1488.3438)">
	<stop  offset="0" style="stop-color:#932420"/>
	<stop  offset="1" style="stop-color:#CB322C"/>
</linearGradient>
<path id="rect3708" fill="url(#rect3708_1_)" d="M60.741,127.24h133.075c19.6,0,35.488,15.896,35.488,35.496v30.938
	c0,19.604-15.894,35.487-35.488,35.487H60.741c-19.599,0-35.487-15.894-35.487-35.487v-30.938
	C25.254,143.136,41.142,127.24,60.741,127.24z"/>
<g enable-background="new    ">
	<path fill="#FFFFFF" d="M56.337,150.482H44.354v-9.588h37.328v9.588H69.147v63.914h-12.81V150.482z"/>
	<path fill="#FFFFFF" d="M105.372,214.396l-0.964-4.737c-4.958,4.077-7.851,5.51-11.294,5.51c-2.893,0-5.923-1.321-7.3-3.086
		c-1.515-1.873-1.929-3.856-1.929-9.478v-42.979h11.984v42.646c0,2.756,0.964,4.078,3.168,4.078c1.515,0,2.893-0.553,5.372-2.203
		v-44.521h11.984v54.771H105.372L105.372,214.396z"/>
	<path fill="#FFFFFF" d="M129.34,140.895h11.983v23.914c4.683-4.188,7.851-5.841,11.433-5.841c2.756,0,5.785,1.322,7.162,3.085
		c1.516,1.983,1.93,3.969,1.93,9.809v30.414c0,5.73-0.414,7.719-1.93,9.697c-1.377,1.875-4.406,3.196-7.3,3.196
		c-3.582,0-6.612-1.653-11.295-5.951v5.181H129.34V140.895z M146.695,206.354c2.203,0,3.168-1.318,3.168-4.078v-30.416
		c0-2.86-0.965-4.072-3.168-4.072c-1.516,0-2.896,0.551-5.372,2.199v34.162C143.803,205.802,145.18,206.354,146.695,206.354z"/>
	<path fill="#FFFFFF" d="M207.163,195.223v1.983c0.138,1.433,0.138,2.425,0.138,2.976c0,9.697-5.923,14.987-16.805,14.987
		c-10.33,0-16.115-5.51-16.115-15.428v-25.456c0-10.358,5.51-15.317,16.666-15.317c9.918,0,16.116,5.179,16.116,13.664v16.089h-20.8
		v12.012c0,3.973,1.24,5.621,4.408,5.621c1.516,0,2.893-0.662,3.58-1.648c0.688-0.992,0.828-2.204,0.828-6.171
		c0-0.992,0-1.769,0-3.312H207.163z M195.18,181.007v-9.257c0-2.534-1.652-3.967-4.408-3.967c-2.754,0-4.402,1.433-4.402,3.967
		v9.257H195.18z"/>
</g>
<g>
	
		<linearGradient id="SVGID_1_" gradientUnits="userSpaceOnUse" x1="103.5" y1="-491.001" x2="103.5" y2="-598.5119" gradientTransform="matrix(1 0 0 -1 25.5 -353)">
		<stop  offset="0" style="stop-color:#000000;stop-opacity:0.15"/>
		<stop  offset="0.6626" style="stop-color:#000000;stop-opacity:0"/>
	</linearGradient>
	<path fill="url(#SVGID_1_)" d="M10.496,115.401v94.605c0,19.6,15.888,35.486,35.487,35.486h164.033
		c19.604,0,35.488-15.889,37.488-34.819v-95.952c-36.779,15.181-77.074,23.576-119.337,23.576
		C86.542,138.298,46.825,130.152,10.496,115.401z"/>
</g>
<linearGradient id="SVGID_2_" gradientUnits="userSpaceOnUse" x1="103.4995" y1="-364.167" x2="103.4995" y2="-491.7951" gradientTransform="matrix(1 0 0 -1 25.5 -353)">
	<stop  offset="0" style="stop-color:#FFFFFF;stop-opacity:0.85"/>
	<stop  offset="0.66" style="stop-color:#FFFFFF;stop-opacity:0"/>
</linearGradient>
<path fill="url(#SVGID_2_)" d="M210.018,10.505H45.983c-19.599,0-35.487,15.889-35.487,35.487v69.409
	c36.33,14.751,76.046,22.896,117.671,22.896c42.263,0,82.558-8.395,119.336-23.576V46.66
	C245.504,26.394,229.615,10.505,210.018,10.505z"/>
<path fill="none" stroke="#E6E6E6" stroke-width="2" stroke-miterlimit="10" d="M247.503,114.721V46.66
	c-1.999-20.266-17.888-36.155-37.485-36.155H45.982c-19.599,0-35.486,15.889-35.486,35.487v69.409"/>
<g>
	<g>
		<g>
			<path fill="none" stroke="#B8B8B8" stroke-width="2" stroke-miterlimit="10" d="M10.496,115.401v94.605
				c0,19.6,15.888,35.486,35.486,35.486h164.034c19.604,0,35.487-15.889,37.487-34.819v-95.952"/>
		</g>
	</g>
</g>
</svg>
