<?xml version="1.0" standalone="no"?>
<!DOCTYPE svg PUBLIC "-//W3C//DTD SVG 20010904//EN"
 "http://www.w3.org/TR/2001/REC-SVG-20010904/DTD/svg10.dtd">
<svg version="1.0" xmlns="http://www.w3.org/2000/svg"
 width="700.000000pt" height="700.000000pt" viewBox="0 0 700.000000 700.000000"
 preserveAspectRatio="xMidYMid meet">
<metadata>
Created by potrace 1.11, written by Peter Selinger 2001-2013
</metadata>
<g transform="translate(0.000000,700.000000) scale(0.100000,-0.100000)"
fill="#000000" stroke="none">
<path d="M2760 6914 c0 -8 -29 -572 -65 -1254 -36 -682 -65 -1242 -65 -1245 0
-3 -576 -5 -1280 -5 l-1280 0 0 -60 0 -60 1275 0 1275 0 0 -37 c0 -21 -18
-375 -40 -788 -22 -412 -40 -769 -40 -792 l0 -43 -1235 0 -1235 0 0 -60 0 -60
1230 0 c677 0 1230 -3 1230 -7 0 -5 -29 -550 -64 -1213 -35 -663 -63 -1206
-62 -1206 0 -1 28 -4 61 -5 l60 -4 3 40 c2 22 32 569 65 1215 l62 1175 828 3
c658 2 827 0 827 -10 0 -20 -119 -2307 -123 -2365 l-4 -51 60 -4 c32 -2 61 0
63 3 1 3 30 536 64 1185 33 648 63 1194 66 1212 l5 32 1244 0 1245 0 0 60 0
60 -1245 0 -1244 0 5 63 c3 34 20 366 39 737 19 371 37 717 41 768 l6 92 1199
0 1199 0 0 60 0 60 -1195 0 -1195 0 0 37 c0 41 116 2303 124 2405 l5 66 -57 4
c-31 2 -60 2 -64 -1 -3 -3 -34 -537 -67 -1186 -33 -649 -63 -1213 -67 -1252
l-6 -73 -824 0 -824 0 1 63 c0 34 28 598 63 1252 35 655 63 1191 62 1191 -1 1
-29 4 -63 7 -51 4 -63 2 -63 -9z m1640 -2676 c0 -29 -18 -390 -40 -803 -22
-412 -40 -762 -40 -777 l0 -28 -830 0 -830 0 6 73 c2 39 20 376 39 747 19 371
37 712 41 758 l6 82 824 0 824 0 0 -52z"/>
<path d="M2815 4208 c-2 -7 -20 -332 -39 -723 -20 -390 -38 -727 -40 -747 l-4
-38 758 0 759 0 5 43 c5 40 77 1406 76 1455 l0 22 -755 0 c-596 0 -756 -3
-760 -12z"/>
<path d="M1066 6101 c-69 -77 -137 -593 -176 -1336 -5 -104 -10 -211 -10 -238
l0 -47 843 2 842 3 42 785 c23 432 42 800 42 818 l1 32 -783 0 c-760 0 -784
-1 -801 -19z"/>
<path d="M2910 6083 c0 -21 -18 -378 -40 -793 -22 -415 -40 -767 -40 -782 l0
-28 760 0 760 0 0 38 c0 20 18 377 40 792 22 415 40 767 40 783 l0 27 -760 0
-760 0 0 -37z"/>
<path d="M4690 6078 c0 -24 -18 -383 -40 -798 -22 -415 -40 -765 -40 -777 l0
-23 785 0 785 0 0 53 c0 28 -5 138 -10 242 -38 727 -104 1234 -172 1320 l-19
25 -645 0 -644 0 0 -42z"/>
<path d="M867 4068 c-9 -196 -9 -1054 0 -1231 l6 -137 798 0 797 0 6 63 c5 50
77 1423 76 1450 0 4 -377 7 -838 7 l-839 0 -6 -152z"/>
<path d="M4595 4208 c-4 -14 -76 -1409 -75 -1470 l0 -38 833 0 834 0 6 128 c9
165 9 1079 0 1255 l-6 137 -794 0 c-626 0 -794 -3 -798 -12z"/>
<path d="M880 2383 c0 -86 18 -421 35 -648 40 -527 98 -878 156 -936 18 -18
39 -19 659 -19 352 0 640 3 640 8 65 1202 87 1638 83 1645 -2 4 -357 7 -789 7
l-784 0 0 -57z"/>
<path d="M2719 2418 c0 -13 -19 -383 -43 -823 -24 -440 -41 -803 -39 -807 2
-5 343 -8 758 -8 l754 0 5 53 c3 28 21 369 41 757 19 388 38 738 41 778 l6 72
-761 0 -761 0 -1 -22z"/>
<path d="M4499 2408 c0 -18 -19 -390 -42 -826 -23 -436 -40 -795 -38 -798 2
-2 352 -4 778 -4 886 0 794 -11 832 102 56 169 109 636 141 1248 5 107 10 221
10 253 l0 57 -840 0 -840 0 -1 -32z"/>
</g>
</svg>
